<?xml version="1.0" encoding="iso-8859-1"?>
<!-- Generator: Adobe Illustrator 19.0.0, SVG Export Plug-In . SVG Version: 6.00 Build 0)  -->
<svg version="1.1" id="Capa_1" xmlns="http://www.w3.org/2000/svg" xmlns:xlink="http://www.w3.org/1999/xlink" x="0px" y="0px"
	 viewBox="0 0 512 512" style="enable-background:new 0 0 512 512;" xml:space="preserve">
<g>
	<g>
		<path d="M291.49,238.236L118.272,65.02c-9.787-9.787-25.713-9.788-35.502,0l-42.857,42.856
			c-4.742,4.742-7.353,11.046-7.353,17.751c0,6.705,2.611,13.01,7.353,17.751l112.609,112.609L39.909,368.623
			c-9.786,9.788-9.786,25.714,0.001,35.5l42.857,42.857c4.742,4.742,11.046,7.354,17.752,7.353c6.706,0,13.01-2.612,17.751-7.354
			l173.22-173.242C301.276,263.95,301.276,248.024,291.49,238.236z M280.883,263.131L107.665,436.374
			c-1.908,1.908-4.446,2.959-7.145,2.959c-2.699,0-5.236-1.051-7.145-2.959l-42.858-42.857c-3.939-3.939-3.939-10.349,0-14.289
			L168.431,261.29c0.005-0.005,0.01-0.011,0.015-0.017c0.006-0.006,0.013-0.011,0.019-0.017c7.256-7.35,14.804-14.914,22.433-22.481
			c2.941-2.917,2.96-7.666,0.043-10.606c-2.917-2.941-7.666-2.96-10.606-0.043c-5.823,5.776-11.597,11.549-17.233,17.229
			L50.519,132.772c-1.909-1.909-2.959-4.446-2.959-7.145c0-2.699,1.051-5.236,2.959-7.145l42.857-42.857
			c1.97-1.97,4.557-2.955,7.145-2.955c2.587,0,5.175,0.985,7.145,2.955l112.578,112.578c-5.828,5.781-11.415,11.387-17.532,17.593
			c-2.908,2.95-2.874,7.698,0.076,10.606c1.461,1.441,3.363,2.159,5.265,2.159c1.938,0,3.874-0.746,5.341-2.235
			c6.092-6.179,11.653-11.76,17.457-17.516l50.032,50.032C284.822,252.781,284.822,259.191,280.883,263.131z"/>
	</g>
</g>
<g>
	<g>
		<path d="M494.01,488.583c-4.143,0-7.5,3.358-7.5,7.5v8.417c0,4.142,3.357,7.5,7.5,7.5s7.5-3.358,7.5-7.5v-8.417
			C501.51,491.941,498.153,488.583,494.01,488.583z"/>
	</g>
</g>
<g>
	<g>
		<path d="M449.738,488.583c-4.143,0-7.5,3.358-7.5,7.5v8.417c0,4.142,3.357,7.5,7.5,7.5s7.5-3.358,7.5-7.5v-8.417
			C457.238,491.941,453.881,488.583,449.738,488.583z"/>
	</g>
</g>
<g>
	<g>
		<path d="M405.466,488.583c-4.143,0-7.5,3.358-7.5,7.5v8.417c0,4.142,3.357,7.5,7.5,7.5s7.5-3.358,7.5-7.5v-8.417
			C412.966,491.941,409.608,488.583,405.466,488.583z"/>
	</g>
</g>
<g>
	<g>
		<path d="M106.534,0c-4.142,0-7.5,3.358-7.5,7.5v8.417c0,4.142,3.358,7.5,7.5,7.5c4.142,0,7.5-3.358,7.5-7.5V7.5
			C114.034,3.358,110.676,0,106.534,0z"/>
	</g>
</g>
<g>
	<g>
		<path d="M62.262,0c-4.142,0-7.5,3.358-7.5,7.5v8.417c0,4.142,3.358,7.5,7.5,7.5c4.142,0,7.5-3.358,7.5-7.5V7.5
			C69.762,3.358,66.404,0,62.262,0z"/>
	</g>
</g>
<g>
	<g>
		<path d="M17.99,0c-4.142,0-7.5,3.358-7.5,7.5v8.417c0,4.142,3.358,7.5,7.5,7.5c4.142,0,7.5-3.358,7.5-7.5V7.5
			C25.49,3.358,22.132,0,17.99,0z"/>
	</g>
</g>
<g>
	<g>
		<path d="M472.063,238.236L298.844,65.02c-9.787-9.787-25.713-9.788-35.502,0l-42.857,42.856
			c-4.742,4.742-7.353,11.046-7.353,17.751c0,6.705,2.611,13.01,7.353,17.751l112.609,112.609L220.482,368.623
			c-9.786,9.788-9.786,25.714,0.001,35.5l42.857,42.857c4.742,4.742,11.046,7.354,17.752,7.353c6.706,0,13.01-2.612,17.751-7.354
			l173.218-173.242C481.849,263.95,481.849,248.024,472.063,238.236z M461.455,263.131L288.237,436.374
			c-1.908,1.908-4.446,2.959-7.145,2.959c-2.699,0-5.236-1.051-7.145-2.959l-42.858-42.857c-3.939-3.939-3.939-10.349,0-14.289
			L349.004,261.29c0.005-0.005,0.01-0.011,0.015-0.017c0.006-0.006,0.013-0.011,0.019-0.017c7.256-7.35,14.804-14.914,22.433-22.481
			c2.941-2.917,2.96-7.666,0.043-10.606c-2.917-2.941-7.666-2.96-10.606-0.043c-5.823,5.776-11.597,11.549-17.233,17.229
			L231.091,132.772c-1.909-1.909-2.959-4.446-2.959-7.145c0-2.699,1.051-5.236,2.959-7.145l42.857-42.857
			c1.97-1.97,4.557-2.955,7.145-2.955c2.587,0,5.175,0.985,7.145,2.955l112.578,112.578c-5.828,5.781-11.415,11.387-17.532,17.593
			c-2.908,2.95-2.874,7.698,0.076,10.606c1.461,1.441,3.363,2.159,5.265,2.159c1.938,0,3.874-0.746,5.341-2.235
			c6.092-6.179,11.653-11.76,17.457-17.516l50.032,50.032C465.394,252.781,465.394,259.191,461.455,263.131z"/>
	</g>
</g>
<g>
</g>
<g>
</g>
<g>
</g>
<g>
</g>
<g>
</g>
<g>
</g>
<g>
</g>
<g>
</g>
<g>
</g>
<g>
</g>
<g>
</g>
<g>
</g>
<g>
</g>
<g>
</g>
<g>
</g>
</svg>
